<svg width="52" height="52" viewBox="0 0 52 52" fill="none" xmlns="http://www.w3.org/2000/svg">
<path d="M34.125 26C34.125 28.1549 33.269 30.2215 31.7452 31.7452C30.2215 33.269 28.1549 34.125 26 34.125C23.8451 34.125 21.7785 33.269 20.2548 31.7452C18.731 30.2215 17.875 28.1549 17.875 26C17.875 25.5369 17.9237 25.0846 18.0077 24.6458H15.1667V35.471C15.1667 36.224 15.776 36.8333 16.529 36.8333H35.4738C35.8346 36.8326 36.1804 36.6888 36.4353 36.4334C36.6902 36.178 36.8333 35.8319 36.8333 35.471V24.6458H33.9923C34.0763 25.0846 34.125 25.5369 34.125 26V26ZM26 31.4167C26.7115 31.4165 27.416 31.2762 28.0733 31.0037C28.7306 30.7313 29.3277 30.332 29.8307 29.8288C30.3337 29.3256 30.7326 28.7282 31.0048 28.0708C31.2769 27.4134 31.4168 26.7088 31.4167 25.9973C31.4165 25.2858 31.2762 24.5813 31.0037 23.924C30.7313 23.2667 30.332 22.6696 29.8288 22.1666C29.3256 21.6636 28.7282 21.2646 28.0708 20.9925C27.4134 20.7204 26.7088 20.5804 25.9973 20.5806C24.5603 20.581 23.1824 21.1522 22.1666 22.1685C21.1507 23.1848 20.5803 24.5631 20.5806 26C20.581 27.4369 21.1522 28.8149 22.1685 29.8307C23.1848 30.8465 24.5631 31.417 26 31.4167V31.4167ZM32.5 20.3125H35.7473C35.963 20.3125 36.17 20.227 36.3228 20.0747C36.4756 19.9224 36.5618 19.7157 36.5625 19.5V16.2527C36.5625 16.0365 36.4766 15.8291 36.3237 15.6763C36.1708 15.5234 35.9635 15.4375 35.7473 15.4375H32.5C32.2838 15.4375 32.0764 15.5234 31.9236 15.6763C31.7707 15.8291 31.6848 16.0365 31.6848 16.2527V19.5C31.6875 19.9469 32.0531 20.3125 32.5 20.3125V20.3125ZM26 0C19.1044 0 12.4912 2.73928 7.61522 7.61522C2.73928 12.4912 0 19.1044 0 26C0 32.8956 2.73928 39.5088 7.61522 44.3848C12.4912 49.2607 19.1044 52 26 52C29.4144 52 32.7953 51.3275 35.9498 50.0209C39.1042 48.7142 41.9705 46.7991 44.3848 44.3848C46.7991 41.9705 48.7142 39.1042 50.0209 35.9498C51.3275 32.7953 52 29.4144 52 26C52 22.5856 51.3275 19.2047 50.0209 16.0502C48.7142 12.8958 46.7991 10.0295 44.3848 7.61522C41.9705 5.2009 39.1042 3.28575 35.9498 1.97913C32.7953 0.67251 29.4144 0 26 0V0ZM39.5417 36.5327C39.5417 38.1875 38.1875 39.5417 36.5327 39.5417H15.4673C13.8125 39.5417 12.4583 38.1875 12.4583 36.5327V15.4673C12.4583 13.8125 13.8125 12.4583 15.4673 12.4583H36.5327C38.1875 12.4583 39.5417 13.8125 39.5417 15.4673V36.5327V36.5327Z" fill="black"/>
</svg>
