<svg width="52" height="51" viewBox="0 0 52 51" fill="none" xmlns="http://www.w3.org/2000/svg">
<path d="M34.125 25.3557C34.125 27.4572 33.269 29.4726 31.7452 30.9586C30.2215 32.4445 28.1549 33.2793 26 33.2793C23.8451 33.2793 21.7785 32.4445 20.2548 30.9586C18.731 29.4726 17.875 27.4572 17.875 25.3557C17.875 24.904 17.9237 24.463 18.0077 24.0351H15.1667V34.592C15.1667 35.3263 15.776 35.9206 16.529 35.9206H35.4738C35.8346 35.9199 36.1804 35.7796 36.4353 35.5305C36.6902 35.2814 36.8333 34.9439 36.8333 34.592V24.0351H33.9923C34.0763 24.463 34.125 24.904 34.125 25.3557ZM26 30.6381C26.7115 30.6379 27.416 30.5011 28.0733 30.2354C28.7306 29.9697 29.3277 29.5804 29.8307 29.0896C30.3337 28.5988 30.7326 28.0163 31.0048 27.3751C31.2769 26.734 31.4168 26.0469 31.4167 25.353C31.4165 24.6592 31.2762 23.9721 31.0037 23.3311C30.7313 22.6901 30.332 22.1078 29.8288 21.6173C29.3256 21.1267 28.7282 20.7377 28.0708 20.4723C27.4134 20.2069 26.7088 20.0704 25.9973 20.0706C24.5603 20.071 23.1824 20.628 22.1666 21.6191C21.1507 22.6103 20.5803 23.9543 20.5806 25.3557C20.581 26.757 21.1522 28.1008 22.1685 29.0915C23.1848 30.0821 24.5631 30.6385 26 30.6381ZM32.5 19.8091H35.7473C35.963 19.8091 36.17 19.7257 36.3228 19.5772C36.4756 19.4287 36.5618 19.2272 36.5625 19.0168V15.8499C36.5625 15.6391 36.4766 15.4369 36.3237 15.2878C36.1708 15.1387 35.9635 15.0549 35.7473 15.0549H32.5C32.2838 15.0549 32.0764 15.1387 31.9236 15.2878C31.7707 15.4369 31.6848 15.6391 31.6848 15.8499V19.0168C31.6875 19.4526 32.0531 19.8091 32.5 19.8091ZM26 0C19.1044 0 12.4912 2.67139 7.61522 7.42651C2.73928 12.1816 0 18.6309 0 25.3557C0 32.0804 2.73928 38.5297 7.61522 43.2849C12.4912 48.04 19.1044 50.7114 26 50.7114C29.4144 50.7114 32.7953 50.0555 35.9498 48.7813C39.1042 47.507 41.9705 45.6394 44.3848 43.2849C46.7991 40.9304 48.7142 38.1352 50.0209 35.0589C51.3275 31.9826 52 28.6854 52 25.3557C52 22.0259 51.3275 18.7288 50.0209 15.6525C48.7142 12.5762 46.7991 9.781 44.3848 7.42651C41.9705 5.07201 39.1042 3.20433 35.9498 1.93009C32.7953 0.655844 29.4144 0 26 0ZM39.5417 35.6274C39.5417 37.2412 38.1875 38.5618 36.5327 38.5618H15.4673C13.8125 38.5618 12.4583 37.2412 12.4583 35.6274V15.084C12.4583 13.4702 13.8125 12.1496 15.4673 12.1496H36.5327C38.1875 12.1496 39.5417 13.4702 39.5417 15.084V35.6274Z" fill="#F7CF47"/>
</svg>
